<svg width="1280" height="720" xmlns="http://www.w3.org/2000/svg" xmlns:xlink="http://www.w3.org/1999/xlink" overflow="hidden"><defs><clipPath id="clip0"><rect x="0" y="0" width="1280" height="720"/></clipPath><linearGradient x1="1211" y1="125.259" x2="1211" y2="30.3457" gradientUnits="userSpaceOnUse" spreadMethod="pad" id="fill1"><stop offset="0" stop-color="#1F67B2"/><stop offset="1" stop-color="#9D469A"/></linearGradient><linearGradient x1="285" y1="447.111" x2="285" y2="300.148" gradientUnits="userSpaceOnUse" spreadMethod="pad" id="fill2"><stop offset="0" stop-color="#1F67B2"/><stop offset="1" stop-color="#9D469A"/></linearGradient><clipPath id="clip3"><rect x="820" y="-2" width="461" height="723"/></clipPath><clipPath id="clip4"><rect x="820" y="-2" width="461" height="723"/></clipPath><clipPath id="clip5"><rect x="820" y="-2" width="461" height="723"/></clipPath><linearGradient x1="-1630.72" y1="747.659" x2="-922.649" y2="1057.88" gradientUnits="userSpaceOnUse" spreadMethod="pad" id="fill6"><stop offset="0" stop-color="#7D1EC6" stop-opacity="0.8"/><stop offset="1" stop-color="#532BD3" stop-opacity="0.8"/></linearGradient><linearGradient x1="-722.073" y1="803.39" x2="-6.24655" y2="1089.44" gradientUnits="userSpaceOnUse" spreadMethod="pad" id="fill7"><stop offset="0" stop-color="#C705AF" stop-opacity="0.8"/><stop offset="1" stop-color="#512CD4" stop-opacity="0.8"/></linearGradient><linearGradient x1="205.712" y1="876.583" x2="927.998" y2="876.583" gradientUnits="userSpaceOnUse" spreadMethod="pad" id="fill8"><stop offset="0" stop-color="#FF82E5"/><stop offset="1" stop-color="#F128F8" stop-opacity="0.698039"/></linearGradient></defs><g clip-path="url(#clip0)"><rect x="0" y="0" width="1280" height="720" fill="#EEEAFA"/><g><g><path d="M1273 68.9995C1273 103.241 1245.24 130.999 1211 130.999 1176.76 130.999 1149 103.241 1149 68.9995 1149 34.7581 1176.76 7 1211 7 1245.24 7 1273 34.7581 1273 68.9995Z" fill="url(#fill1)"/></g></g><g><g><g><path d="M1160.07 64.566C1161.24 64.566 1162.07 63.726 1162.07 62.4856 1162.07 61.2452 1161.23 60.4052 1160.09 60.4052 1159 60.3853 1158.1 61.254 1158.08 62.3456 1158.08 62.3904 1158.08 62.4353 1158.08 62.48 1158.08 63.6924 1158.92 64.566 1160.07 64.566Z" fill="#E9E8EA"/><path d="M1167.11 56.6336C1167.11 54.5308 1167.09 52.8592 1167.02 51.2744 1167.68 52.5092 1168.48 53.8756 1169.47 55.4744L1175.16 64.566 1178.14 64.566 1178.14 46.1504 1175.13 46.1504 1175.13 53.926C1175.13 55.7572 1175.15 57.4036 1175.24 59.0808 1174.59 57.8404 1173.84 56.5608 1173 55.2252L1167.25 46.1504 1164.1 46.1504 1164.1 64.566 1167.11 64.566Z" fill="#E9E8EA"/><path d="M1191.96 61.7856 1184.36 61.7856 1184.36 56.3452 1191.18 56.3452 1191.18 53.59 1184.36 53.59 1184.36 48.9308 1191.57 48.9308 1191.57 46.1504 1181.21 46.1504 1181.21 64.566 1191.96 64.566 1191.96 61.7856Z" fill="#E9E8EA"/><path d="M1197.76 64.566 1200.93 64.566 1200.93 48.956 1206.29 48.956 1206.29 46.1504 1192.42 46.1504 1192.42 48.956 1197.76 48.956 1197.76 64.566Z" fill="#E9E8EA"/><path d="M1220.88 64.566C1223.15 64.566 1224.86 64.1124 1225.71 63.6868L1226.03 63.5272 1225.34 60.8672 1224.85 61.1024C1223.75 61.5697 1222.56 61.8023 1221.36 61.7856 1217.42 61.7856 1215.06 59.3132 1215.06 55.1748 1215.06 50.9216 1217.46 48.3848 1221.46 48.3848 1222.62 48.3649 1223.76 48.5981 1224.81 49.068L1225.28 49.2948 1226.08 46.6012 1225.75 46.4332C1225.38 46.24 1223.96 45.5932 1221.39 45.5932 1215.73 45.5932 1211.79 49.5608 1211.79 55.242 1211.79 60.9232 1215.35 64.566 1220.88 64.566Z" fill="#E9E8EA"/><path d="M1226.63 57.6472C1226.63 61.7212 1229.3 64.566 1233.11 64.566 1236.34 64.566 1239.83 62.326 1239.83 57.44 1239.83 53.366 1237.15 50.5212 1233.33 50.5212 1229.38 50.5212 1226.63 53.45 1226.63 57.6472ZM1233.22 61.9676C1231.26 61.9676 1229.83 60.1168 1229.83 57.5688 1229.83 55.354 1230.89 53.1196 1233.27 53.1196 1235.9 53.1196 1236.6 55.9952 1236.6 57.5184 1236.6 60.0972 1235.18 61.9676 1233.22 61.9676Z" fill="#E9E8EA"/><path d="M1250.25 56.88 1250.25 64.58 1253.43 64.58 1253.43 56.6C1253.43 52.3188 1250.79 50.8012 1248.54 50.8012 1247.08 50.7726 1245.69 51.3582 1244.69 52.414L1244.6 51.0924 1241.69 51.0924 1241.72 51.5656C1241.79 52.5288 1241.83 53.5256 1241.83 54.9424L1241.83 64.566 1244.99 64.566 1244.99 56.5552C1244.99 56.2371 1245.03 55.9202 1245.13 55.6172 1245.47 54.4308 1246.55 53.6063 1247.78 53.5872 1249.42 53.5872 1250.25 54.6904 1250.25 56.88Z" fill="#E9E8EA"/><path d="M1263.58 45.3244C1262.91 45.0587 1262.19 44.9237 1261.46 44.9268 1260.21 44.9009 1259 45.364 1258.09 46.2176 1257.03 47.2256 1256.5 48.8132 1256.5 50.9356L1256.5 51.0924 1254.73 51.0924 1254.73 53.716 1256.5 53.716 1256.5 64.566 1259.64 64.566 1259.64 53.716 1262.69 53.716 1262.69 51.0924 1259.64 51.0924 1259.64 50.8572C1259.64 47.9872 1260.78 47.6568 1261.65 47.6568 1262.08 47.6457 1262.52 47.7288 1262.92 47.9004L1263.44 48.1412 1263.92 45.4588Z" fill="#E9E8EA"/><path d="M1200.84 69.5416 1189.14 69.5416 1189.14 71.9076 1193.64 71.9076 1193.64 85.0732 1196.32 85.0732 1196.32 71.9076 1200.84 71.9076 1200.84 69.5416Z" fill="#DFA6CB"/><path d="M1204.1 69.5416 1198.83 85.0732 1201.59 85.0732 1203.12 80.4224 1207.83 80.4224 1209.41 85.0732 1212.24 85.0732 1206.94 69.5416ZM1207.18 78.1852 1203.76 78.1852 1205.05 74.3912C1205.19 73.9516 1205.33 73.4924 1205.46 72.9912 1205.59 73.4504 1205.74 73.9236 1205.9 74.4248Z" fill="#DFA6CB"/><path d="M1213.52 69.5416 1216.17 69.5416 1216.17 85.0732 1213.52 85.0732Z" fill="#DFA6CB"/><path d="M1233.61 69.5416 1231.59 77.2836 1231.52 77.5636C1231.25 78.6136 1231 79.63 1230.77 80.6184 1230.56 79.5376 1230.31 78.4176 1230.05 77.334L1228.18 69.5444 1225.6 69.5444 1223.56 77.2808C1223.25 78.4344 1222.94 79.6132 1222.69 80.7136 1222.47 79.644 1222.21 78.4736 1221.93 77.3116L1220.11 69.5444 1217.31 69.5444 1221.25 85.076 1223.82 85.076 1226 77.1044C1226.31 76.0236 1226.56 75.066 1226.77 74.128 1226.95 75.0716 1227.17 76.0348 1227.43 77.0904L1229.36 85.076 1231.93 85.076 1236.33 69.5444Z" fill="#DFA6CB"/><path d="M1240.08 69.5416 1234.8 85.0732 1237.56 85.0732 1239.1 80.4224 1243.81 80.4224 1245.39 85.0732 1248.21 85.0732 1242.92 69.5416ZM1243.16 78.1852 1239.74 78.1852 1241.03 74.3912C1241.17 73.9516 1241.31 73.4924 1241.44 72.9912 1241.57 73.4504 1241.72 73.9236 1241.88 74.4248Z" fill="#DFA6CB"/><path d="M1258.8 76.0992C1258.8 77.642 1258.82 79.0336 1258.89 80.4476 1258.33 79.4004 1257.72 78.3252 1257.01 77.1968L1252.16 69.5416 1249.5 69.5416 1249.5 85.0732 1252.04 85.0732 1252.04 78.3812C1252.04 76.6088 1252.02 75.2004 1251.97 73.862 1252.53 74.9036 1253.19 76.0572 1254.03 77.3956L1258.84 85.0732 1261.36 85.0732 1261.36 69.5416 1258.81 69.5416Z" fill="#DFA6CB"/></g></g></g><text fill="#FEFFFE" font-family="Open Sans,Open Sans_MSFontService,sans-serif" font-weight="400" font-size="21.3333" transform="translate(1175.87 105)">2025</text><g><g><g><path d="M80.0867 182.616C77.1689 189.535 70.3767 194.021 62.8676 193.988L44.46 193.988 44.46 184.15 62.8676 184.15C65.2055 184.197 67.4582 183.272 69.0891 181.596 72.4746 178.114 72.4746 172.57 69.0891 169.087 67.457 167.415 65.2044 166.492 62.8676 166.542L59.977 166.542C57.4332 166.555 54.903 166.169 52.479 165.397 50.191 164.679 48.053 163.55 46.1694 162.066 42.2521 158.995 40.025 154.247 40.1681 149.271 40.0836 146.37 40.6844 143.489 41.9215 140.863 43.0319 138.619 44.6709 136.678 46.6977 135.207 48.8084 133.704 51.1865 132.619 53.7042 132.008 56.4712 131.323 59.3128 130.985 62.1633 131.003 63.6306 131.003 65.1347 131.059 66.6753 131.172 68.216 131.284 69.7078 131.428 71.1507 131.605 72.5789 131.781 73.9217 131.999 75.1785 132.258 76.2599 132.473 77.3274 132.75 78.3773 133.087L75.1345 142.331C74.4632 142.108 73.7765 141.934 73.0802 141.81 72.1705 141.634 71.136 141.458 69.9622 141.282 68.7883 141.106 67.5411 140.973 66.1985 140.893 64.8559 140.812 63.5059 140.761 62.1633 140.761 60.6686 140.759 59.1756 140.862 57.6953 141.069 56.3316 141.263 55.0115 141.69 53.7922 142.331 52.6642 142.915 51.7235 143.805 51.0777 144.899 50.3565 146.25 50.0094 147.77 50.0725 149.301 50.0359 150.511 50.3383 151.708 50.9456 152.756 51.5171 153.691 52.2983 154.479 53.2273 155.06 54.1959 155.669 55.2636 156.103 56.382 156.344 57.561 156.615 58.7672 156.751 59.977 156.747L62.8676 156.747C73.1066 156.678 81.4631 164.922 81.532 175.161 81.532 175.223 81.532 175.284 81.532 175.346 81.5518 177.842 81.0603 180.317 80.0867 182.616Z" fill="#262626" transform="matrix(1 0 0 1.00778 374.084 188.161)"/><path d="M106.777 142.015 106.777 194.105 96.8436 194.105 96.8436 142.015 78.2012 142.015 78.2012 132.199 125.09 132.199 125.09 142.015Z" fill="#262626" transform="matrix(1 0 0 1.00778 374.084 188.161)"/><path d="M172.198 180.092C169.683 186.017 164.964 190.731 159.036 193.24 152.873 195.871 145.904 195.871 139.741 193.24 133.836 190.711 129.135 186.001 126.616 180.092 125.297 177.035 124.627 173.737 124.649 170.408L124.649 132.199 134.554 132.199 134.554 170.474C134.544 172.467 134.946 174.44 135.735 176.27 137.257 179.841 140.097 182.687 143.666 184.216 145.494 185.005 147.464 185.407 149.455 185.397 151.43 185.411 153.386 185.006 155.192 184.208 156.941 183.439 158.531 182.349 159.88 180.995 161.238 179.63 162.324 178.019 163.079 176.248 163.874 174.415 164.279 172.436 164.267 170.437L164.267 142.015 156.725 142.015 156.725 132.199 174.172 132.199 174.172 170.408C174.194 173.738 173.522 177.037 172.198 180.092Z" fill="#262626" transform="matrix(1 0 0 1.00778 374.084 188.161)"/><path d="M226.533 176.079C223.332 183.6 217.346 189.592 209.828 192.799 205.972 194.473 201.809 195.325 197.605 195.301 194.874 195.354 192.152 194.983 189.535 194.201 187.251 193.472 184.739 192.521 182 191.347L182 142.015 174.37 142.015 174.37 132.199 197.598 132.199C201.801 132.173 205.964 133.023 209.82 134.693 217.354 137.903 223.353 143.902 226.563 151.436 229.899 159.306 229.899 168.194 226.563 176.065ZM217.421 155.317C216.327 152.747 214.764 150.404 212.814 148.405 210.86 146.425 208.54 144.844 205.983 143.747 203.328 142.598 200.462 142.013 197.568 142.03L191.875 142.03 191.875 184.707C193.725 185.242 195.642 185.508 197.568 185.499 200.462 185.516 203.328 184.932 205.983 183.783 208.542 182.687 210.862 181.101 212.814 179.117 214.765 177.122 216.328 174.781 217.421 172.213 219.694 166.817 219.694 160.734 217.421 155.339Z" fill="#262626" transform="matrix(1 0 0 1.00778 374.084 188.161)"/><path d="M249.277 194.076 238.323 194.076 246.21 177.246 225.176 132.287 236.13 132.287 251.735 165.5 267.244 132.287 278.198 132.287Z" fill="#262626" transform="matrix(1 0 0 1.00778 374.084 188.161)"/><path d="M314.397 183.907 314.397 193.988 304.47 193.988 304.47 183.907 267.508 183.907 314.397 129.858 314.397 174.12 326.664 174.12 326.664 183.937ZM304.47 155.859 287.992 174.091 304.47 174.091Z" fill="#262626" transform="matrix(1 0 0 1.00778 374.084 188.161)"/><path d="M41.9582 234.464 41.3273 233.833C43.9276 230.311 45.9943 226.425 47.4607 222.3L42.0463 222.3 42.0463 221.5 47.6881 221.5C48.1919 220.231 48.5846 218.92 48.862 217.583L49.7497 217.751C49.4415 219.019 49.0693 220.27 48.6346 221.5L55.9712 221.5 55.0248 225.059 58.407 225.059 57.5192 228.727 60.1604 228.727C60.0577 230.649 59.889 232.454 59.6395 234.141 59.3901 235.829 58.7444 236.673 57.7246 236.673 56.8873 236.623 56.0593 236.471 55.2595 236.218L55.1348 235.271C55.9602 235.556 56.8179 235.736 57.688 235.807 58.1263 235.811 58.5056 235.503 58.5904 235.073 58.7827 234.274 58.9199 233.463 59.0012 232.645 59.1406 231.537 59.2287 230.495 59.2727 229.534L45.2157 229.534C44.2624 231.261 43.1731 232.91 41.9582 234.464ZM44.1592 217.935C45.067 218.869 45.8987 219.875 46.6463 220.943L45.9714 221.522C45.2579 220.395 44.4293 219.346 43.4989 218.39ZM47.3286 231.214C46.741 232.893 45.8944 234.47 44.8195 235.887L44.0858 235.374C45.1212 234.009 45.9448 232.495 46.5289 230.884ZM45.6192 228.705 56.6242 228.705 57.3065 225.88 47.0352 225.88C46.8151 226.321 46.6023 226.775 46.3969 227.245 46.1328 227.737 45.8907 228.221 45.6265 228.705ZM54.9147 222.3 48.4218 222.3C48.2807 222.76 48.1167 223.213 47.9302 223.657L47.3947 225.037 54.1884 225.037ZM49.9478 231.031C49.9478 231.662 49.9918 232.322 49.9918 233.026 49.9918 233.731 49.9918 234.435 49.9111 235.227L48.9647 235.183C49.0766 234.226 49.1378 233.263 49.1481 232.3 49.1481 231.838 49.1481 231.412 49.1041 231.045ZM52.567 230.803C53.1006 231.919 53.547 233.074 53.9023 234.259L53.0145 234.589C52.6825 233.401 52.2707 232.237 51.782 231.104ZM55.3623 230.37C56.1409 231.3 56.8566 232.28 57.5045 233.305L56.7709 233.885C56.1662 232.814 55.4846 231.789 54.7313 230.818Z" fill="#262626" transform="matrix(1 0 0 1.00778 374.084 188.161)"/><path d="M121.788 229.424 111.605 229.424 111.605 228.558 123.52 228.558 123.52 229.38C121.674 230.363 119.718 231.124 117.694 231.647L117.944 232.16 126.924 232.16 126.924 232.99 118.12 232.99C118.271 233.649 118.347 234.323 118.347 235 118.347 236.291 117.76 236.937 116.594 236.937 115.86 236.929 115.132 236.805 114.437 236.57L114.349 235.623C115.048 235.916 115.793 236.082 116.55 236.115 117.144 236.115 117.438 235.763 117.438 235.066 117.438 234.367 117.353 233.669 117.188 232.99L107.981 232.99 107.981 232.16 116.975 232.16C116.806 231.75 116.592 231.358 116.337 230.994L117.071 230.568 117.357 230.994C118.876 230.596 120.358 230.07 121.788 229.424ZM109.807 219.255C111.367 219.122 112.888 218.696 114.29 218.001L114.701 218.734C113.446 219.334 112.108 219.742 110.732 219.945L110.769 221.185 114.745 221.185 114.745 221.985 110.783 221.985 110.886 223.635 114.862 223.635 114.862 224.435 110.908 224.435 110.989 226.306 123.989 226.306 124.092 224.479 120.321 224.479 120.321 223.672 124.107 223.672 124.187 222.029 120.651 222.029 120.651 221.222 124.209 221.222 124.312 219.512 120.768 219.512 120.768 218.69 125.236 218.69 124.87 226.306 126.19 226.306 126.19 229.241 125.302 229.241 125.302 227.098 109.521 227.098 109.521 229.255 108.634 229.255 108.634 226.321 110.101 226.321ZM119.976 225.345 119.374 225.924C118.487 224.978 117.958 224.501 117.79 224.501 117.099 225.103 116.341 225.623 115.53 226.049L115.053 225.315C115.809 224.957 116.514 224.5 117.151 223.958 116.631 223.536 116.082 223.151 115.508 222.806L115.978 222.146C116.607 222.519 117.208 222.938 117.775 223.401 118.324 222.956 118.817 222.445 119.242 221.882L119.903 222.373C119.465 222.935 118.973 223.454 118.435 223.921 118.968 224.37 119.477 224.845 119.961 225.345ZM119.976 221.229 119.36 221.845C118.516 220.928 118.017 220.466 117.892 220.466 117.19 221.062 116.43 221.588 115.625 222.036L115.171 221.302C115.939 220.963 116.65 220.505 117.276 219.945 116.542 219.373 115.948 218.94 115.479 218.646L116 217.971C116.535 218.316 117.173 218.778 117.929 219.373 118.523 218.861 119.061 218.288 119.536 217.663L120.196 218.177C119.722 218.815 119.176 219.396 118.567 219.908 119.206 220.517 119.683 220.957 119.961 221.229Z" fill="#262626" transform="matrix(1 0 0 1.00778 374.084 188.161)"/><path d="M181.259 224.112C179.409 225.183 177.439 226.033 175.39 226.643L175.023 225.778C177.071 225.176 179.056 224.378 180.951 223.393ZM175.25 218.573 183.049 218.573 183.049 226.416 182.147 226.416 182.147 219.365 175.25 219.365ZM176.652 220.224C177.973 220.762 179.263 221.371 180.518 222.051L180.107 222.836C178.854 222.134 177.563 221.502 176.241 220.943ZM190.276 228.331 190.276 236.973 189.395 236.973 189.395 235.733 178.625 235.733 178.625 236.973 177.723 236.973 177.723 228.331 181.611 228.331C182.497 227.773 183.282 227.071 183.937 226.255L184.722 226.746C184.233 227.356 183.657 227.89 183.012 228.331ZM189.395 229.138 178.625 229.138 178.625 231.625 189.395 231.625ZM178.625 234.963 189.395 234.963 189.395 232.41 178.625 232.41ZM184.084 218.573 191.963 218.573 191.963 226.768 191.061 226.768 191.061 219.365 184.084 219.365ZM190.342 224.09C188.574 224.987 186.717 225.698 184.803 226.21L184.428 225.345C186.375 224.872 188.266 224.197 190.07 223.327ZM185.544 220.238C186.863 220.782 188.154 221.394 189.41 222.073L188.999 222.858C187.758 222.161 186.483 221.53 185.177 220.965Z" fill="#262626" transform="matrix(1 0 0 1.00778 374.084 188.161)"/><path d="M249.145 223.577 257.949 223.577 257.949 235C257.949 236.144 257.354 236.709 256.173 236.709 255.525 236.693 254.883 236.597 254.258 236.423L254.097 235.477C254.782 235.662 255.486 235.773 256.195 235.807 256.731 235.807 257.002 235.528 257.002 234.963L257.002 224.442 253.114 224.442 253.114 234.714 252.167 234.714 252.167 224.442 248.279 224.442 248.279 235.601 247.333 235.601 247.333 224.442 243.437 224.442 243.437 236.973 242.49 236.973 242.49 223.547 248 223.547C248.691 222.439 249.187 221.22 249.468 219.945L240.664 219.945 240.664 219.079 259.739 219.079 259.739 219.945 250.517 219.945C250.246 221.218 249.784 222.442 249.145 223.577Z" fill="#262626" transform="matrix(1 0 0 1.00778 374.084 188.161)"/><path d="M310.538 223.327C309.657 225.055 308.565 226.666 307.288 228.125L306.466 227.531C307.544 226.321 308.464 224.976 309.203 223.533 310.096 221.963 310.782 220.283 311.242 218.536L312.247 218.8C311.882 220.029 311.436 221.233 310.912 222.403L315.894 222.403 315.894 217.671 316.987 217.671 316.987 222.403 324.191 222.403 324.191 223.327 316.987 223.327 316.987 228.169 322.915 228.169 322.915 229.094 316.987 229.094 316.987 234.838 325.505 234.838 325.505 235.763 306.385 235.763 306.385 234.838 315.923 234.838 315.923 229.094 309.606 229.094 309.606 228.169 315.886 228.169 315.886 223.327Z" fill="#262626" transform="matrix(1 0 0 1.00778 374.084 188.161)"/></g></g></g><g><g><path d="M380.999 359.999C380.999 413.018 338.018 455.999 284.999 455.999 231.98 455.999 189 413.018 189 359.999 189 306.98 231.98 264 284.999 264 338.018 264 380.999 306.98 380.999 359.999Z" fill="url(#fill2)"/></g></g><g><g><g><path d="M205.869 351.826C207.701 351.826 208.979 350.521 208.979 348.594 208.979 346.667 207.674 345.362 205.908 345.362 204.212 345.331 202.813 346.68 202.782 348.376 202.78 348.446 202.782 348.516 202.785 348.585 202.785 350.469 204.09 351.826 205.869 351.826Z" fill="#E9E8EA"/><path d="M216.818 339.502C216.818 336.235 216.779 333.638 216.679 331.176 217.697 333.095 218.941 335.217 220.485 337.701L229.32 351.826 233.957 351.826 233.957 323.216 229.272 323.216 229.272 335.296C229.272 338.141 229.307 340.698 229.446 343.304 228.437 341.377 227.271 339.389 225.966 337.314L217.036 323.216 212.133 323.216 212.133 351.826 216.818 351.826Z" fill="#E9E8EA"/><path d="M255.416 347.506 243.614 347.506 243.614 339.054 254.202 339.054 254.202 334.774 243.614 334.774 243.614 327.535 254.807 327.535 254.807 323.216 238.725 323.216 238.725 351.826 255.416 351.826 255.416 347.506Z" fill="#E9E8EA"/><path d="M264.429 351.826 269.353 351.826 269.353 327.574 277.683 327.574 277.683 323.216 256.142 323.216 256.142 327.574 264.429 327.574 264.429 351.826Z" fill="#E9E8EA"/><path d="M300.355 351.826C303.87 351.826 306.537 351.121 307.855 350.46L308.355 350.212 307.276 346.079 306.524 346.445C304.807 347.171 302.959 347.532 301.095 347.506 294.97 347.506 291.312 343.665 291.312 337.236 291.312 330.628 295.031 326.687 301.256 326.687 303.046 326.656 304.82 327.019 306.454 327.749L307.181 328.101 308.42 323.916 307.92 323.655C307.342 323.355 305.136 322.35 301.138 322.35 292.356 322.35 286.222 328.514 286.222 337.34 286.222 346.166 291.764 351.826 300.355 351.826Z" fill="#E9E8EA"/><path d="M309.286 341.077C309.286 347.406 313.423 351.826 319.348 351.826 324.372 351.826 329.788 348.346 329.788 340.755 329.788 334.426 325.633 330.006 319.687 330.006 313.558 330.006 309.286 334.556 309.286 341.077ZM319.513 347.789C316.468 347.789 314.254 344.914 314.254 340.955 314.254 337.514 315.907 334.043 319.591 334.043 323.685 334.043 324.768 338.51 324.768 340.877 324.768 344.883 322.558 347.789 319.513 347.789Z" fill="#E9E8EA"/><path d="M345.983 339.885 345.983 351.848 350.911 351.848 350.911 339.45C350.911 332.799 346.818 330.441 343.316 330.441 341.058 330.397 338.887 331.306 337.335 332.947L337.2 330.894 332.672 330.894 332.728 331.629C332.841 333.125 332.889 334.674 332.889 336.875L332.889 351.826 337.813 351.826 337.813 339.38C337.803 338.886 337.876 338.394 338.026 337.923 338.553 336.08 340.225 334.799 342.142 334.769 344.691 334.769 345.983 336.483 345.983 339.885Z" fill="#E9E8EA"/><path d="M366.693 321.933C365.644 321.52 364.527 321.31 363.4 321.315 361.458 321.275 359.577 321.994 358.158 323.32 356.514 324.886 355.683 327.353 355.683 330.65L355.683 330.894 352.934 330.894 352.934 334.97 355.683 334.97 355.683 351.826 360.568 351.826 360.568 334.97 365.297 334.97 365.297 330.894 360.568 330.894 360.568 330.528C360.568 326.069 362.343 325.556 363.683 325.556 364.361 325.539 365.034 325.668 365.658 325.935L366.467 326.309 367.215 322.141Z" fill="#E9E8EA"/><path d="M269.21 359.556 251.044 359.556 251.044 363.231 258.03 363.231 258.03 383.685 262.189 383.685 262.189 363.231 269.21 363.231 269.21 359.556Z" fill="#DFA6CB"/><path d="M274.282 359.556 266.086 383.685 270.375 383.685 272.763 376.46 280.08 376.46 282.534 383.685 286.923 383.685 278.688 359.556ZM279.067 372.984 273.76 372.984 275.756 367.09C275.969 366.407 276.191 365.694 276.396 364.915 276.596 365.628 276.831 366.363 277.079 367.142Z" fill="#DFA6CB"/><path d="M288.911 359.556 293.03 359.556 293.03 383.685 288.911 383.685Z" fill="#DFA6CB"/><path d="M320.131 359.556 316.981 371.583 316.872 372.018C316.464 373.65 316.072 375.229 315.72 376.764 315.393 375.085 314.993 373.345 314.593 371.662L311.692 359.56 307.69 359.56 304.505 371.579C304.031 373.371 303.548 375.203 303.161 376.912 302.813 375.25 302.409 373.432 301.982 371.627L299.151 359.56 294.801 359.56 300.921 383.69 304.914 383.69 308.299 371.305C308.781 369.626 309.169 368.138 309.495 366.681 309.778 368.147 310.126 369.643 310.526 371.283L313.527 383.69 317.521 383.69 324.359 359.56Z" fill="#DFA6CB"/><path d="M330.179 359.556 321.975 383.685 326.268 383.685 328.652 376.46 335.969 376.46 338.422 383.685 342.816 383.685 334.59 359.556ZM334.964 372.984 329.657 372.984 331.649 367.09C331.867 366.407 332.084 365.694 332.293 364.915 332.489 365.628 332.728 366.363 332.972 367.142Z" fill="#DFA6CB"/><path d="M359.259 369.743C359.259 372.14 359.289 374.302 359.407 376.499 358.537 374.872 357.584 373.202 356.475 371.449L348.945 359.556 344.812 359.556 344.812 383.685 348.762 383.685 348.762 373.289C348.762 370.535 348.727 368.347 348.645 366.268 349.515 367.886 350.55 369.678 351.851 371.757L359.315 383.685 363.23 383.685 363.23 359.556 359.281 359.556Z" fill="#DFA6CB"/></g></g></g><text fill="#FEFFFE" font-family="Open Sans,Open Sans_MSFontService,sans-serif" font-weight="400" font-size="35.9867" transform="translate(230.464 419)">2025</text><g clip-path="url(#clip3)"><g clip-path="url(#clip4)"><g clip-path="url(#clip5)"><path d="M-1638.3 1064.64-1638.3 744.799C-1534.22 692.413-1463.68 696.079-1383.29 750.987-1332.66 790.526-1313.05 835.502-1229.34 881.667-1187.78 904.579-1125.43 849.936-1076.02 834.445-1014.35 815.115-976.776 855.735-916.351 887.491-917.607 938.065-917.566 1014.06-917.857 1064.64Z" fill="url(#fill6)" transform="matrix(-1.83697e-16 -1 1.28838 -2.36671e-16 -90.6224 -917.302)"/></g></g></g><g><g><g><path d="M-722.864 1093.38C-722.837 994.494-722.918 897.869-722.823 798.986-627.67 793.492-623.894 841.509-561.669 876.465-466.926 926.257-395.59 827.92-320.359 828.04-225.857 836.058-198.681 918.314-105.62 921.331-75.1963 920.639-27.8721 887.392-1.27514 893.176-1.69679 1010.68-0.908087 1028-0.908087 1093.38Z" fill="url(#fill7)" transform="matrix(-1.83697e-16 -1 1.00053 -1.83795e-16 187.02 -1.87113)"/></g></g></g><g><g><g><path d="M205.944 1038.27C206.246 1027.99 205.602 1016.57 205.905 1006.3 412.156 993.539 390.023 899.512 474.188 896.806 544.91 894.534 535.651 950.625 623.593 951.133 721.856 951.699 787.708 736.675 927.882 714.239 927.433 822.476 926.983 930.713 926.525 1038.95 686.017 1038.34 446.454 1038.87 205.944 1038.27Z" fill="url(#fill8)" transform="matrix(-1.83697e-16 -1 1.00105 -1.83891e-16 241.009 926.822)"/></g></g></g></g></svg>